<svg id="Layer_1" data-name="Layer 1" xmlns="http://www.w3.org/2000/svg" width="3.31in" height="2.63in" viewBox="0 0 237.96 189.53">
  <defs>
    <style>
      .cls-1 {
        fill: #fbd241;
      }
    </style>
  </defs>
  <title>01</title>
  <g>
    <path class="cls-1" d="M0,94.76C0,41.88,15.18,0,61.78,0s61.78,41.88,61.78,94.76c0,53.14-15.18,94.76-61.78,94.76S0,147.91,0,94.76Zm111.78,0c0-47.12-11-84-50-84s-50,36.91-50,84c0,47.38,11,84,50,84S111.78,142.15,111.78,94.76Z"/>
    <path class="cls-1" d="M144.51,175.92h41.62V26.7c0-4.71.26-9.16,0.26-9.16h-0.52s-1.83,3.4-9.69,11.26L154.45,50.52l-7.85-7.59L186.13,3.14h11.26V175.92H238v10.47H144.51V175.92Z"/>
  </g>
</svg>
