<svg id="Layer_1" data-name="Layer 1" xmlns="http://www.w3.org/2000/svg" width="3.23in" height="4.16in" viewBox="0 0 232.22 299.57">
  <defs>
    <style>
      .cls-1 {
        fill: #010101;
      }
    </style>
  </defs>
  <title>02</title>
  <g>
    <path class="cls-1" d="M116.11,299.57C51.32,299.57,0,281,0,223.88s51.32-75.69,116.11-75.69c65.11,0,116.11,18.6,116.11,75.69S181.22,299.57,116.11,299.57Zm0-137c-57.73,0-103,13.47-103,61.26s45.22,61.26,103,61.26c58.05,0,103-13.47,103-61.26S174.16,162.61,116.11,162.61Z"/>
    <path class="cls-1" d="M216.5,145.62C138.56,145.62,129.58,26,61.58,26,34.64,26,13.15,45.87,13.15,78.26c0,35.92,32.4,54.53,32.4,54.53L38.49,143S0,122.84,0,77.94C0,33.68,29.51,11.55,61.58,11.55c76.66,0,86.28,119.32,154,119.32V13.47H183.14V0h45.22V144.65A77.09,77.09,0,0,1,216.5,145.62Z"/>
  </g>
</svg>
