<svg id="Layer_1" data-name="Layer 1" xmlns="http://www.w3.org/2000/svg" width="3.26in" height="2.59in" viewBox="0 0 234.59 186.44">
  <defs>
    <style>
      .cls-1 {
        fill: #fff;
      }
    </style>
  </defs>
  <title>03</title>
  <g>
    <path class="cls-1" d="M0,93.22C0,41.2,14.94,0,60.77,0s60.77,41.2,60.77,93.22c0,52.27-14.94,93.22-60.77,93.22S0,145.49,0,93.22Zm110,0c0-46.35-10.81-82.66-49.18-82.66S11.59,46.87,11.59,93.22c0,46.61,10.81,82.66,49.18,82.66S110,139.83,110,93.22Z"/>
    <path class="cls-1" d="M129.78,3.09H233.3v7.73L175.11,78c21.63-.26,59.48,10.81,59.48,53.3,0,30.9-26,55.11-57.17,55.11-34.25,0-56.14-25-56.14-25l8.24-8.24s18.8,22.66,48.41,22.66c22.92,0,45.06-18,45.06-44.55,0-28.07-23.69-43-48.15-43-6.44,0-12.1.51-12.1,0.51L159.4,80.6l53-62.06a33.91,33.91,0,0,1,5.67-5.15V12.88s-4.89.51-7.73,0.51H140.6v26H129.78V3.09Z"/>
  </g>
</svg>
