<svg id="Layer_1" data-name="Layer 1" xmlns="http://www.w3.org/2000/svg" width="5.89in" height="4.08in" viewBox="0 0 424.3 293.5">
  <defs>
    <style>
      .cls-1 {
        fill: #fee145;
      }
    </style>
  </defs>
  <title>04</title>
  <g>
    <path class="cls-1" d="M128.38,0c59.35,0,79.94,37.55,79.94,92,0,72.67-31.49,201.46-128.38,201.46C21.8,293.5,0,256,0,201.86,0,129.19,32.3,0,128.38,0ZM80.74,267.26c73.88,0,98.51-113,98.51-174.81,0-39.56-13.32-66.21-51.68-66.21-69.84,0-98.51,106.18-98.51,175.62C29.07,241,42.79,267.26,80.74,267.26Z"/>
    <path class="cls-1" d="M213.16,191.77L386.35,4.84h32.7L383.93,185.31H424.3l-4.84,24.63H379.09l-15.34,78.72H335.89l15.34-78.72H209.52Zm142.92-6.46,23-118.69C381.51,54.5,385.55,40,385.55,40h-0.81c-0.4,0-8.48,11.71-17.76,21.4L250.3,185.31H356.07Z"/>
  </g>
</svg>
